<?xml version="1.0" standalone="no"?>
<!DOCTYPE svg PUBLIC "-//W3C//DTD SVG 20010904//EN"
 "http://www.w3.org/TR/2001/REC-SVG-20010904/DTD/svg10.dtd">
<svg version="1.0" xmlns="http://www.w3.org/2000/svg"
 width="550.000000pt" height="550.000000pt" viewBox="0 0 550.000000 550.000000"
 preserveAspectRatio="xMidYMid meet">
<metadata>
Created by potrace 1.14, written by Peter Selinger 2001-2017
</metadata>
<g transform="translate(0.000000,550.000000) scale(0.100000,-0.100000)"
fill="#000000" stroke="none">
<path d="M1085 4862 c-16 -1 -70 -12 -120 -23 -383 -87 -608 -345 -606 -692 1
-162 10 -202 75 -333 49 -102 188 -264 316 -371 92 -77 282 -195 415 -257 51
-24 242 -101 275 -111 3 -1 37 -11 75 -23 73 -22 178 -50 217 -57 13 -3 43 -9
68 -15 25 -5 74 -11 110 -13 l65 -2 -3 170 c-5 254 -8 314 -12 318 -3 2 -43
12 -90 21 -122 26 -213 58 -352 125 -351 168 -509 358 -450 541 35 108 106
153 242 154 151 0 238 -40 351 -162 161 -175 295 -447 315 -641 3 -25 7 -52 9
-59 7 -20 19 -209 18 -292 0 -73 -10 -296 -18 -396 -12 -141 -17 -197 -20
-212 -1 -9 -6 -46 -10 -82 -3 -36 -8 -72 -10 -80 -2 -8 -7 -44 -10 -80 -30
-288 -200 -588 -387 -682 -98 -49 -183 -66 -314 -63 -66 1 -137 7 -159 13 -65
18 -147 74 -187 127 -95 125 -76 253 52 354 75 60 161 84 295 84 243 0 404
-50 524 -162 44 -41 51 -35 96 95 32 94 56 214 70 349 l6 60 -83 51 c-129 80
-311 147 -458 169 -20 3 -47 7 -60 10 -91 18 -311 23 -400 10 -412 -60 -757
-302 -844 -594 -27 -91 -37 -220 -24 -319 30 -239 223 -500 486 -655 81 -48
205 -104 298 -135 79 -27 127 -39 269 -67 67 -13 273 -13 365 1 100 15 251 53
316 80 206 84 403 230 548 407 45 55 186 296 214 368 41 100 86 299 107 469 8
62 18 319 19 457 l1 151 50 -5 c27 -2 78 -6 113 -7 34 -2 64 -5 67 -8 3 -3 7
-70 10 -149 6 -195 23 -477 29 -488 2 -3 7 -28 10 -54 22 -166 53 -258 144
-437 120 -235 260 -396 461 -525 127 -82 323 -155 458 -171 32 -3 61 -8 65
-10 11 -7 218 -6 263 1 388 61 710 248 888 516 31 47 70 115 86 150 30 67 58
198 56 259 -8 201 -56 329 -173 467 -139 162 -350 282 -582 329 -91 18 -286
23 -400 11 -258 -29 -629 -191 -606 -265 3 -9 8 -37 11 -62 20 -171 52 -311
86 -387 18 -41 39 -64 39 -44 0 21 86 93 145 120 107 51 208 71 360 72 174 0
298 -58 358 -169 57 -106 34 -218 -64 -306 -72 -65 -140 -88 -271 -91 -165 -4
-279 30 -383 116 -68 56 -107 110 -169 233 -56 108 -79 175 -90 257 -9 58 -15
99 -21 124 -2 11 -7 43 -11 70 -3 28 -8 52 -9 55 -2 3 -7 48 -10 100 -4 52 -9
103 -11 112 -16 91 -25 618 -11 723 4 33 10 78 13 100 10 79 16 101 45 190 59
176 157 345 278 476 90 98 186 138 322 133 101 -3 178 -59 204 -148 23 -75 19
-108 -22 -185 -74 -139 -223 -275 -403 -370 -68 -35 -180 -76 -240 -87 -25 -4
-47 -8 -50 -9 -3 -1 -31 -5 -62 -9 l-58 -8 -1 -37 c-1 -20 -3 -52 -4 -71 -3
-39 -8 -335 -6 -362 2 -24 93 -16 246 21 294 72 492 156 730 309 189 122 297
227 413 398 87 130 116 227 117 394 0 150 -12 220 -58 317 -132 283 -478 442
-842 388 -200 -30 -331 -82 -514 -203 -294 -195 -522 -525 -659 -954 -23 -72
-72 -298 -72 -334 0 -2 -67 -3 -149 -2 l-149 1 -26 140 c-34 177 -118 405
-199 542 -21 35 -142 220 -147 225 -3 3 -25 32 -50 65 -184 244 -531 464 -805
509 -139 23 -179 28 -240 30 -38 1 -83 0 -100 -2z"/>
</g>
</svg>
